<?xml version="1.0" encoding="UTF-8"?>
<svg xmlns="http://www.w3.org/2000/svg" xmlns:xlink="http://www.w3.org/1999/xlink" viewBox="0 0 1000 1000">
  <defs>
    <style>
      .cls-1 {
        fill: #00dae0;
      }

      .cls-2 {
        fill: #00aeff;
      }

      .cls-3 {
        fill: #ff9d00;
      }

      .cls-4, .cls-5 {
        fill: #fff;
      }

      .cls-6 {
        fill: #ffe700;
      }

      .cls-7 {
        fill: #fefc00;
      }

      .cls-8 {
        fill: red;
      }

      .cls-9 {
        fill: #f0f;
      }

      .cls-10 {
        fill: #8b53ff;
      }

      .cls-11 {
        fill: #ce20ff;
      }

      .cls-12 {
        fill: #4a54ff;
      }

      .cls-5 {
        stroke: #f2f2f2;
        stroke-miterlimit: 10;
        stroke-width: 10px;
      }

      .cls-13 {
        filter: url(#drop-shadow-1);
      }

      .cls-13, .cls-14 {
        fill: none;
      }

      .cls-14 {
        filter: url(#drop-shadow-2);
      }
    </style>
    <filter id="drop-shadow-1" filterUnits="userSpaceOnUse">
      <feOffset dx="2" dy="2"/>
      <feGaussianBlur result="blur" stdDeviation="2"/>
      <feFlood flood-color="#000" flood-opacity=".3"/>
      <feComposite in2="blur" operator="in"/>
      <feComposite in="SourceGraphic"/>
    </filter>
    <filter id="drop-shadow-2" filterUnits="userSpaceOnUse">
      <feOffset dx="0" dy="0"/>
      <feGaussianBlur result="blur-2" stdDeviation="2"/>
      <feFlood flood-color="#000" flood-opacity=".3"/>
      <feComposite in2="blur-2" operator="in"/>
      <feComposite in="SourceGraphic"/>
    </filter>
  </defs>
  <g id="spinner-colors">
    <path class="cls-7" d="m764.52,135.92l-264.52,364.08V50c98.86,0,190.27,31.88,264.52,85.92Z"/>
    <path class="cls-6" d="m928.09,360.91l-428.09,139.09,264.52-364.08c75.95,55.27,133.94,133.74,163.57,224.99Z"/>
    <path class="cls-3" d="m950,500c0,48.54-7.69,95.29-21.91,139.09l-428.09-139.09,428.09-139.09c14.22,43.8,21.91,90.55,21.91,139.09Z"/>
    <path class="cls-8" d="m928.09,639.09c-29.63,91.25-87.62,169.72-163.57,224.99l-264.52-364.08,428.09,139.09Z"/>
    <path class="cls-9" d="m764.52,864.08c-74.25,54.04-165.66,85.92-264.52,85.92v-450l264.52,364.08Z"/>
    <path class="cls-11" d="m500,500v450c-98.86,0-190.27-31.88-264.52-85.92l264.52-364.08Z"/>
    <path class="cls-10" d="m500,500l-264.52,364.08c-75.95-55.27-133.94-133.74-163.57-224.99l428.09-139.09Z"/>
    <path class="cls-12" d="m500,500l-428.09,139.09c-14.22-43.8-21.91-90.55-21.91-139.09s7.69-95.29,21.91-139.09l428.09,139.09Z"/>
    <path class="cls-2" d="m500,500L71.91,360.91c29.63-91.25,87.62-169.72,163.57-224.99l264.52,364.08Z"/>
    <path class="cls-1" d="m500,50v450L235.48,135.92c74.25-54.04,165.66-85.92,264.52-85.92Z"/>
    <g id="numbers" class="cls-13">
      <path class="cls-4" d="m651,87.93c-9.32,29.29-18.37,58.48-27.16,87.59-4.4,14.58-8.74,29.16-13,43.72l-23.55-5.78c10.87-37.59,20.81-72.43,29.83-104.53-5.56-.52-13.45-.05-23.69,1.42l1.69-21.83,30.96-8.61,24.91,8.03Z"/>
      <path class="cls-4" d="m794.73,238.12c2.94-2.59,5.75-4.88,8.41-6.86,9.35-6.95,17.36-10.26,24.01-9.93,8.5.42,15.78,3.61,21.83,9.57,2.15,2.13,4.08,4.35,5.79,6.65,3.07,4.13,5.44,8.53,7.13,13.2,2.6,7.32,2.33,14.49-.8,21.52-2.67,5.8-7.51,11.29-14.51,16.5-1.36,1.01-2.82,2.05-4.37,3.12-9.46,6.05-19.74,9.49-30.84,10.32-11.11.83-28.05.58-50.85-.73l25.21,34.43-19.85,14.38c-11.82-14.5-26.52-33.58-44.11-57.26l20.06-17.7c25.92,2.8,45.27,4.17,58.03,4.1,11.69-.09,21.2-2.85,28.52-8.29l1.96-1.46c7.41-6.4,8.89-12.6,4.42-18.61l-.23-.31c-4.04-5.11-10.74-4.19-20.09,2.76-1.78,1.32-3.63,2.81-5.55,4.49l-14.17-19.89Z"/>
      <path class="cls-4" d="m894.58,472.53c3.46-.17,6.68-.21,9.67-.13,10.35.27,18.28,2.05,23.79,5.32,7.05,4.16,11.31,10.78,12.76,19.88.73,4.45,1.04,8.69.93,12.72-.11,4.1-.67,7.99-1.68,11.68-1.95,7.18-6.04,12.85-12.27,17.01-6.23,4.17-14.69,6.27-25.37,6.31l-2.93-.08c-9.24-.25-15.94-1.86-20.09-4.83-4.67-3.32-8.11-8.65-10.32-16-1.07,6.03-3.39,10.51-6.95,13.44-3.56,2.93-8.29,4.91-14.18,5.93-3.27.56-6.86.79-10.76.69-3.19-.08-6.63-.4-10.33-.96-8.11-1.19-15.05-4.68-20.82-10.47-5.77-5.79-8.64-14.54-8.58-26.26l.04-1.56c.29-11,3.39-19.71,9.29-26.13,6.04-6.68,18.72-9.76,38.05-9.25l.59.02.79,25.32c-1.11-.09-2.18-.16-3.22-.18-13.67-.36-20.82,3.03-21.47,10.18-.08.52-.12,1.01-.14,1.46-.18,6.77,3.29,10.93,10.42,12.49,2.01.44,3.92.69,5.74.74,5.14.14,9.64-1.21,13.49-4.04,5.18-3.9,7.9-10.5,8.14-19.81l18.58-.68c-.09,1.1-.15,2.15-.18,3.12-.21,8.13,1.98,13.79,6.58,16.98,4.28,2.98,9.91,4.56,16.87,4.75,1.37.04,2.77,0,4.2-.08,8.34-.37,12.61-4,12.79-10.9l.03-1.27c-.28-6.85-7.02-10.44-20.23-10.79-1.56-.04-3.22-.05-4.98-.03l1.73-24.57Z"/>
      <path class="cls-4" d="m800.94,668.61l20.06,12.11c13.16,23.48,25.96,48.88,38.42,76.21l-19.97,24.35-60.64-44.79-8.36,10.95-18.84-13.77,7.89-10.8-33.2-24.25,14.65-18.56,32.71,24.26,27.29-35.7Zm-9.07,49.49l40.51,29.96c-9.13-15.54-18.06-31.5-26.81-47.89l-13.7,17.93Z"/>
      <path class="cls-4" d="m641.49,815.02l-21.23,8.93c-4.4-13.56-10.87-18.96-19.42-16.19-8.48,2.75-11.78,8.3-9.9,16.66.92,3.88,1.99,7.74,3.24,11.58,1.42,4.4,3.08,8.75,4.96,13.07,3.44,7.85,8.09,10.82,13.98,8.92l.56-.18c6.22-2.36,9.2-8.77,8.96-19.23l22.75-6.76,22.36,77.86-62.07,21.35-7.6-22.48,41.07-14.24-8.57-32.13c-.18,9.16-3.82,15.54-10.94,19.15-1.7.89-3.41,1.62-5.14,2.18-5.39,1.75-10.8,1.93-16.25.54-7.15-1.79-13.74-9.44-19.76-22.96-2.04-4.61-3.8-9.2-5.29-13.79-2.81-8.67-4.54-17.18-5.19-25.52-.99-12.75,2.21-21.9,9.58-27.44,5.22-3.95,10.8-6.89,16.75-8.82,2.42-.78,4.92-1.39,7.52-1.82,8.8-1.55,16.64-.09,23.5,4.4,6.31,4.05,11.33,11.83,15.06,23.35.36,1.12.71,2.3,1.05,3.56Z"/>
      <path class="cls-4" d="m400.49,855.13c-7.74,7.58-16.2,9.92-25.38,7l-.19-.06c-9.23-3-15.19-8.63-17.89-16.9-2.7-8.27-2.82-16.83-.35-25.68l.74-2.33c2.54-8,6.44-15.54,11.69-22.62,5.74-7.74,12.26-12.02,19.55-12.85,5.34-.69,10.93-.11,16.76,1.74,2.11.67,4.26,1.52,6.46,2.56,8.17,3.75,13.72,9.82,16.66,18.2,2.94,8.38,3.74,18.54,2.41,30.48-.95,8.78-3.04,18.3-6.3,28.53-1.14,3.6-2.44,7.25-3.89,10.96-5.4,14.41-11.05,25.75-16.95,34.01-5.9,8.27-12.42,13.42-19.56,15.46-6.97,1.95-14.15,1.76-21.54-.59l-.56-.18c-7.53-2.53-13.16-7.01-16.88-13.46-3.72-6.44-5.05-14.04-3.98-22.78.74-5.78,1.95-11.3,3.63-16.58.89-2.79,1.88-5.48,2.97-8.07l20.85,6.62c-.81,2.13-1.52,4.13-2.11,5.99-3.69,11.6-3.56,18.64.36,21.12,1.04.6,2.05,1.06,3.05,1.38,3.6,1.14,7.19.27,10.77-2.62,4.66-3.71,8.69-9.61,12.07-17.68,2.35-5.47,4.28-10.56,5.77-15.28.71-2.23,1.32-4.36,1.82-6.39Zm3.76-18.28c2.48-8.23,3.35-14.7,2.63-19.4-.72-4.71-2.98-8-6.75-9.88-.58-.32-1.21-.59-1.9-.81-3.1-.99-6.27-.59-9.5,1.18-3.55,1.95-6.49,6.55-8.79,13.81l-.59,1.86c-2.37,8.33-1.02,14.09,4.04,17.27.81.46,1.65.83,2.52,1.11,4.78,1.52,10.89-.2,18.33-5.14Z"/>
      <path class="cls-4" d="m184.98,771.41l-20.31,13.59c-14.23-18.87-27.85-37.06-40.85-54.57l20.05-14.61c40.65-7.22,76.58-20.43,107.78-39.63l11.5,20.26c-30.26,18.5-64.79,32.03-103.6,40.56l25.43,34.4Z"/>
      <path class="cls-4" d="m131.29,484.73c3.92-8.88,9.62-14.41,17.09-16.6,5.2-1.53,10.53-2.31,16-2.34,2.48-.01,4.98.13,7.52.44,8.14.93,15.19,4.19,21.15,9.79,5.96,5.6,9.1,14.25,9.43,25.97v1.56c.07,11-2.74,19.81-8.43,26.42-5.88,6.94-14.23,10.57-25.03,10.89-.72.07-1.43.11-2.15.11-9.83.06-17.69-1.78-23.57-5.53-6.27-4-10.24-8.96-11.9-14.87-1.73,4.37-5.21,8.82-10.42,13.34-5.21,4.52-12.74,6.88-22.57,7.07h-.88c-9.38.06-17.59-1.85-24.64-5.71-7.18-3.93-11.65-10.41-13.4-19.45-.87-4.42-1.32-8.65-1.34-12.69-.02-4.1.41-8.01,1.3-11.73,1.72-7.24,5.62-13.04,11.71-17.4,6.1-4.36,14.15-6.74,24.18-7.12l2.83-.02c8.72-.05,15.5,1.34,20.34,4.18,5.42,3.16,9.68,7.72,12.78,13.7Zm-14.64,18.74c-2.97-6.75-7.71-10.66-14.23-11.73-2.48-.44-4.76-.66-6.84-.64-3.25.02-5.99.59-8.19,1.71-3.57,1.78-5.47,4.88-5.71,9.31v.88c.03,4.04,1.74,7.18,5.14,9.44,2.75,1.81,6.27,2.7,10.56,2.67,1.56,0,3.26-.15,5.08-.42,6.7-.95,11.43-4.69,14.19-11.22Zm24.61-.34c3.55,6.62,7.74,10.5,12.57,11.65,2.74.64,5.38.95,7.92.93,1.95-.01,3.84-.22,5.66-.62,4.29-.94,7.34-2.68,9.15-5.23,1.36-1.83,2.03-3.95,2.01-6.36,0-.91-.11-1.89-.31-2.93-.67-3.64-2.27-6.29-4.78-7.93-2.52-1.65-5.99-2.58-10.42-2.82-.52-.06-1.07-.09-1.66-.09-3.77.02-7.35.82-10.73,2.41-3.9,1.85-7.03,5.51-9.41,10.99Z"/>
      <path class="cls-4" d="m213.08,273.75c4.75,9.74,4.29,18.5-1.38,26.29-.04.05-.08.06-.14.02-5.75,7.9-13.07,11.95-21.96,12.16-8.89.21-18.47-3.25-28.73-10.4-.78-.48-1.56-1.01-2.35-1.59-9.11-6.63-16.12-13.7-21.03-21.23-5.34-8.15-7.08-16.1-5.22-23.85,1.39-5.67,3.81-10.88,7.26-15.61,1.26-1.74,2.68-3.4,4.25-5,5.76-6.03,13.08-9.12,21.96-9.26,8.88-.14,18.75,2.29,29.6,7.29,8.09,3.71,16.47,8.73,25.16,15.05,3.05,2.22,6.1,4.56,9.14,7.02,11.98,9.77,20.95,18.75,26.93,26.97s8.78,16.01,8.4,23.39c-.3,7.27-2.9,14.27-7.81,21.01-.12.16-.26.3-.42.42-5.15,6.96-12.08,11.06-20.78,12.29-8.47,1.24-19.08-2.77-31.82-12.05l-1.18-.86,12.87-17.69c1.13.99,2.25,1.88,3.36,2.69,5.84,4.25,10.81,5.45,14.9,3.6,2.06-.84,3.64-2.02,4.75-3.54,1.53-2.1,2.16-4.79,1.88-8.06-.4-5.53-3.74-10.9-10.02-16.11-3.48-2.85-6.82-5.45-10.03-7.79-2.63-1.92-5.16-3.64-7.59-5.17Zm-15.58-10.13c-1.75-1.35-3.42-2.61-5-3.76-7.53-5.48-13.73-8.79-18.62-9.93-5.93-1.25-10.36-.42-13.31,2.51-.4.44-.75.86-1.06,1.29-2.07,2.84-2.52,6.5-1.35,10.98,1.27,4.79,5.95,10.13,14.06,16.03l1.9,1.38c9.26,6.42,16.31,6.96,21.16,1.63.49-.45.94-.96,1.36-1.54,3.64-5,3.92-11.2.85-18.59Z"/>
      <path class="cls-4" d="m328.65,95.98c13.22,27.75,26.57,55.24,40.05,82.5,6.75,13.66,13.55,27.25,20.4,40.79l-21.15,11.88c-17.76-34.87-34.32-67.1-49.68-96.69-4.41,3.42-9.85,9.16-16.32,17.23l-13.68-17.09,16.71-27.44,23.67-11.17Z"/>
      <path class="cls-4" d="m400.88,70.43c25.02-5.93,42.94,13.91,53.75,59.52,10.82,45.68,2.84,71.69-23.96,78.04s-45.8-14.14-57.02-61.46c-10.42-43.96-1.34-69.33,27.23-76.1Zm-.73,73.14c.34,1.73.7,3.38,1.08,4.96,5.93,25.02,14.06,36.31,24.38,33.86,10.9-2.58,12.99-18.03,6.28-46.35s-15.17-41.27-25.36-38.85c-10.2,2.42-12.32,17.87-6.37,46.37Z"/>
    </g>
  </g>
  <g id="red-black">
    <path class="cls-8" d="m661.65,277.51l-161.65,222.49V225c60.41,0,116.28,19.48,161.65,52.51Z"/>
    <path d="m761.61,415l-261.61,85,161.65-222.49c46.42,33.77,81.86,81.73,99.96,137.49Z"/>
    <path class="cls-8" d="m775,500c0,29.66-4.7,58.23-13.39,85l-261.61-85,261.61-85c8.69,26.77,13.39,55.34,13.39,85Z"/>
    <path d="m761.61,585c-18.1,55.76-53.54,103.72-99.96,137.49l-161.65-222.49,261.61,85Z"/>
    <path class="cls-8" d="m661.65,722.49c-45.37,33.03-101.24,52.51-161.65,52.51v-275l161.65,222.49Z"/>
    <path d="m500,500v275c-60.41,0-116.28-19.48-161.65-52.51l161.65-222.49Z"/>
    <path class="cls-8" d="m500,500l-161.65,222.49c-46.42-33.77-81.86-81.73-99.96-137.49l261.61-85Z"/>
    <path d="m500,500l-261.61,85c-8.69-26.77-13.39-55.34-13.39-85s4.7-58.23,13.39-85l261.61,85Z"/>
    <path class="cls-8" d="m500,500l-261.61-85c18.1-55.76,53.54-103.72,99.96-137.49l161.65,222.49Z"/>
    <path d="m500,225v275l-161.65-222.49c45.37-33.03,101.24-52.51,161.65-52.51Z"/>
  </g>
  <g id="spinner-center">
    <circle class="cls-4" cx="500" cy="500" r="110"/>
    <circle class="cls-5" cx="500" cy="500" r="60"/>
    <g class="cls-14">
      <path class="cls-4" d="m500,790c-77.46,0-150.29-30.17-205.06-84.94-54.77-54.77-84.94-127.6-84.94-205.06s30.17-150.29,84.94-205.06c54.77-54.77,127.6-84.94,205.06-84.94s150.29,30.17,205.06,84.94c54.77,54.77,84.94,127.6,84.94,205.06s-30.17,150.29-84.94,205.06c-54.77,54.77-127.6,84.94-205.06,84.94Zm0-520c-61.44,0-119.19,23.92-162.63,67.37-43.44,43.44-67.37,101.2-67.37,162.63s23.92,119.19,67.37,162.63c43.44,43.44,101.2,67.37,162.63,67.37s119.19-23.92,162.63-67.37,67.37-101.2,67.37-162.63-23.92-119.19-67.37-162.63c-43.44-43.44-101.2-67.37-162.63-67.37Z"/>
    </g>
    <rect class="cls-4" x="485" y="225" width="30" height="200"/>
    <rect class="cls-4" x="382.14" y="258.42" width="30" height="200" transform="translate(-134.83 301.88) rotate(-36)"/>
    <rect class="cls-4" x="318.57" y="345.92" width="30" height="200" transform="translate(-193.61 625.36) rotate(-72)"/>
    <rect class="cls-4" x="318.57" y="454.08" width="30" height="200" transform="translate(-90.32 1042.54) rotate(-108)"/>
    <rect class="cls-4" x="382.14" y="541.58" width="30" height="200" transform="translate(341.32 1394.06) rotate(-144)"/>
    <rect class="cls-4" x="485" y="575" width="30" height="200" transform="translate(1000 1350) rotate(-180)"/>
    <rect class="cls-4" x="587.86" y="541.58" width="30" height="200" transform="translate(1467.7 806.27) rotate(144)"/>
    <rect class="cls-4" x="651.43" y="454.08" width="30" height="200" transform="translate(1399.33 91.48) rotate(108)"/>
    <rect class="cls-4" x="651.43" y="345.92" width="30" height="200" transform="translate(884.59 -325.69) rotate(72)"/>
    <rect class="cls-4" x="587.86" y="258.42" width="30" height="200" transform="translate(325.81 -285.9) rotate(36)"/>
  </g>
</svg>