<?xml version="1.0" encoding="UTF-8"?>
<svg id="spinner-arrow" xmlns="http://www.w3.org/2000/svg" xmlns:xlink="http://www.w3.org/1999/xlink" viewBox="0 0 108 307">
  <defs>
    <style>
      .cls-1 {
        fill: #f2f2f2;
      }

      .cls-2, .cls-3 {
        fill: #fff;
      }

      .cls-3 {
        filter: url(#drop-shadow-1);
      }
    </style>
    <filter id="drop-shadow-1" filterUnits="userSpaceOnUse">
      <feOffset dx="0" dy="0"/>
      <feGaussianBlur result="blur" stdDeviation="3"/>
      <feFlood flood-color="#000" flood-opacity=".3"/>
      <feComposite in2="blur" operator="in"/>
      <feComposite in="SourceGraphic"/>
    </filter>
  </defs>
  <path class="cls-3" d="m99,54c0-24.85-20.15-45-45-45S9,29.15,9,54c0,18.28,10.9,33.99,26.55,41.04l8.45,92.96,10,110,10-110,8.45-92.96c15.65-7.05,26.55-22.77,26.55-41.04Z"/>
  <g>
    <circle class="cls-2" cx="54" cy="54" r="22"/>
    <path class="cls-1" d="m54,35c10.48,0,19,8.52,19,19s-8.52,19-19,19-19-8.52-19-19,8.52-19,19-19m0-6c-13.81,0-25,11.19-25,25s11.19,25,25,25,25-11.19,25-25-11.19-25-25-25h0Z"/>
  </g>
</svg>