<?xml version="1.0" encoding="UTF-8"?>
<svg id="spinner-base" xmlns="http://www.w3.org/2000/svg" viewBox="0 0 1000 1000">
  <defs>
    <style>
      .cls-1 {
        fill: #f2f2f2;
      }

      .cls-2 {
        fill: #fff;
      }
    </style>
  </defs>
  <circle class="cls-2" cx="500" cy="500" r="500"/>
  <path class="cls-1" d="m500,45c61.43,0,121.01,12.03,177.1,35.75,54.18,22.92,102.84,55.72,144.63,97.51,41.79,41.79,74.6,90.45,97.51,144.63,23.72,56.09,35.75,115.68,35.75,177.11s-12.03,121.01-35.75,177.1c-22.92,54.18-55.72,102.84-97.51,144.63-41.79,41.79-90.45,74.6-144.63,97.51-56.09,23.72-115.68,35.75-177.1,35.75s-121.01-12.03-177.11-35.75c-54.18-22.92-102.84-55.72-144.63-97.51-41.79-41.79-74.6-90.45-97.51-144.63-23.72-56.09-35.75-115.68-35.75-177.1s12.03-121.01,35.75-177.11c22.92-54.18,55.72-102.84,97.51-144.63,41.79-41.79,90.45-74.6,144.63-97.51,56.09-23.72,115.68-35.75,177.11-35.75m0-5c-254.05,0-460,205.95-460,460s205.95,460,460,460,460-205.95,460-460S754.05,40,500,40h0Z"/>
  <g>
    <circle class="cls-2" cx="500" cy="41" r="7.5"/>
    <path class="cls-1" d="m500,35c3.31,0,6,2.69,6,6s-2.69,6-6,6-6-2.69-6-6,2.69-6,6-6m0-3c-4.96,0-9,4.04-9,9s4.04,9,9,9,9-4.04,9-9-4.04-9-9-9h0Z"/>
  </g>
  <g>
    <circle class="cls-2" cx="770" cy="129" r="7.5"/>
    <path class="cls-1" d="m770,123c3.31,0,6,2.69,6,6s-2.69,6-6,6-6-2.69-6-6,2.69-6,6-6m0-3c-4.96,0-9,4.04-9,9s4.04,9,9,9,9-4.04,9-9-4.04-9-9-9h0Z"/>
  </g>
  <g>
    <circle class="cls-2" cx="937" cy="359" r="7.5"/>
    <path class="cls-1" d="m937,353c3.31,0,6,2.69,6,6s-2.69,6-6,6-6-2.69-6-6,2.69-6,6-6m0-3c-4.96,0-9,4.04-9,9s4.04,9,9,9,9-4.04,9-9-4.04-9-9-9h0Z"/>
  </g>
  <g>
    <circle class="cls-2" cx="936" cy="643" r="7.5"/>
    <path class="cls-1" d="m936,637c3.31,0,6,2.69,6,6s-2.69,6-6,6-6-2.69-6-6,2.69-6,6-6m0-3c-4.96,0-9,4.04-9,9s4.04,9,9,9,9-4.04,9-9-4.04-9-9-9h0Z"/>
  </g>
  <g>
    <circle class="cls-2" cx="770" cy="872" r="7.5"/>
    <path class="cls-1" d="m770,866c3.31,0,6,2.69,6,6s-2.69,6-6,6-6-2.69-6-6,2.69-6,6-6m0-3c-4.96,0-9,4.04-9,9s4.04,9,9,9,9-4.04,9-9-4.04-9-9-9h0Z"/>
  </g>
  <g>
    <circle class="cls-2" cx="500" cy="959" r="7.5"/>
    <path class="cls-1" d="m500,953c3.31,0,6,2.69,6,6s-2.69,6-6,6-6-2.69-6-6,2.69-6,6-6m0-3c-4.96,0-9,4.04-9,9s4.04,9,9,9,9-4.04,9-9-4.04-9-9-9h0Z"/>
  </g>
  <g>
    <circle class="cls-2" cx="231" cy="871" r="7.5"/>
    <path class="cls-1" d="m231,865c3.31,0,6,2.69,6,6s-2.69,6-6,6-6-2.69-6-6,2.69-6,6-6m0-3c-4.96,0-9,4.04-9,9s4.04,9,9,9,9-4.04,9-9-4.04-9-9-9h0Z"/>
  </g>
  <g>
    <circle class="cls-2" cx="64" cy="643" r="7.5"/>
    <path class="cls-1" d="m64,637c3.31,0,6,2.69,6,6s-2.69,6-6,6-6-2.69-6-6,2.69-6,6-6m0-3c-4.96,0-9,4.04-9,9s4.04,9,9,9,9-4.04,9-9-4.04-9-9-9h0Z"/>
  </g>
  <g>
    <circle class="cls-2" cx="63" cy="358" r="7.5"/>
    <path class="cls-1" d="m63,352c3.31,0,6,2.69,6,6s-2.69,6-6,6-6-2.69-6-6,2.69-6,6-6m0-3c-4.96,0-9,4.04-9,9s4.04,9,9,9,9-4.04,9-9-4.04-9-9-9h0Z"/>
  </g>
  <g>
    <circle class="cls-2" cx="230" cy="129" r="7.5"/>
    <path class="cls-1" d="m230,123c3.31,0,6,2.69,6,6s-2.69,6-6,6-6-2.69-6-6,2.69-6,6-6m0-3c-4.96,0-9,4.04-9,9s4.04,9,9,9,9-4.04,9-9-4.04-9-9-9h0Z"/>
  </g>
</svg>