<?xml version="1.0" encoding="UTF-8"?>
<svg id="spinner-fate" xmlns="http://www.w3.org/2000/svg" xmlns:xlink="http://www.w3.org/1999/xlink" viewBox="0 0 1000 1000">
  <defs>
    <style>
      .cls-1 {
        fill: #f87d2b;
      }

      .cls-2 {
        fill: #f7c837;
      }

      .cls-3, .cls-4, .cls-5, .cls-6, .cls-7, .cls-8, .cls-9, .cls-10 {
        fill: #fff;
      }

      .cls-11 {
        fill: #9465eb;
      }

      .cls-12 {
        fill: #dc2977;
      }

      .cls-13 {
        fill: #e00006;
      }

      .cls-14 {
        fill: #1491d2;
      }

      .cls-4 {
        filter: url(#drop-shadow-4);
      }

      .cls-4, .cls-5, .cls-6, .cls-7, .cls-8 {
        stroke-miterlimit: 10;
      }

      .cls-4, .cls-6 {
        stroke-width: 20px;
      }

      .cls-4, .cls-6, .cls-8 {
        stroke: #fff;
      }

      .cls-5 {
        stroke-width: 10px;
      }

      .cls-5, .cls-7 {
        stroke: #dc2977;
      }

      .cls-7 {
        stroke-width: 8px;
      }

      .cls-8 {
        filter: url(#drop-shadow-5);
        stroke-width: 15px;
      }

      .cls-9 {
        filter: url(#drop-shadow-1);
      }

      .cls-10 {
        filter: url(#drop-shadow-3);
      }

      .cls-15 {
        fill: none;
        filter: url(#drop-shadow-2);
      }
    </style>
    <filter id="drop-shadow-1" filterUnits="userSpaceOnUse">
      <feOffset dx="4" dy="1"/>
      <feGaussianBlur result="blur" stdDeviation="2"/>
      <feFlood flood-color="#000" flood-opacity=".6"/>
      <feComposite in2="blur" operator="in"/>
      <feComposite in="SourceGraphic"/>
    </filter>
    <filter id="drop-shadow-2" filterUnits="userSpaceOnUse">
      <feOffset dx="3" dy="3"/>
      <feGaussianBlur result="blur-2" stdDeviation="2"/>
      <feFlood flood-color="#000" flood-opacity=".6"/>
      <feComposite in2="blur-2" operator="in"/>
      <feComposite in="SourceGraphic"/>
    </filter>
    <filter id="drop-shadow-3" filterUnits="userSpaceOnUse">
      <feOffset dx="-3" dy="-3"/>
      <feGaussianBlur result="blur-3" stdDeviation="2"/>
      <feFlood flood-color="#000" flood-opacity=".6"/>
      <feComposite in2="blur-3" operator="in"/>
      <feComposite in="SourceGraphic"/>
    </filter>
    <filter id="drop-shadow-4" filterUnits="userSpaceOnUse">
      <feOffset dx="-4" dy="1"/>
      <feGaussianBlur result="blur-4" stdDeviation="2"/>
      <feFlood flood-color="#000" flood-opacity=".6"/>
      <feComposite in2="blur-4" operator="in"/>
      <feComposite in="SourceGraphic"/>
    </filter>
    <filter id="drop-shadow-5" filterUnits="userSpaceOnUse">
      <feOffset dx="4" dy="-1"/>
      <feGaussianBlur result="blur-5" stdDeviation="2"/>
      <feFlood flood-color="#000" flood-opacity=".6"/>
      <feComposite in2="blur-5" operator="in"/>
      <feComposite in="SourceGraphic"/>
    </filter>
  </defs>
  <path class="cls-12" d="m210,500c0-30.91,4.82-61.07,14.07-89.65l-152.07-49.41c-28.96,89.36-29.75,186.93-.09,278.16l152.16-49.44c-9.25-28.58-14.07-58.75-14.07-89.66Z"/>
  <path class="cls-1" d="m294.94,294.94c10.85-10.85,22.42-20.72,34.58-29.59l-94.02-129.41c-79.98,58.11-135.19,137.63-163.5,224.99l152.07,49.41c13.94-43.05,37.95-82.49,70.87-115.41Z"/>
  <path class="cls-14" d="m500,210h0V49.97c-91.83-.08-184.52,27.86-264.5,85.97l94.02,129.41c49.24-35.93,108.36-55.35,170.48-55.35Z"/>
  <path class="cls-2" d="m705.06,294.94c32.92,32.92,56.93,72.36,70.87,115.4l152.16-49.44c-14.24-43.79-35.5-86.13-64.03-125.4-28.53-39.27-62.23-72.57-99.48-99.65-77.61-56.41-170.65-85.8-264.58-85.88v160.03c77.46,0,150.29,30.17,205.06,84.94Z"/>
  <path class="cls-11" d="m928.09,360.9l-152.16,49.44c9.25,28.58,14.07,58.75,14.07,89.66,0,77.46-30.17,150.29-84.94,205.06-10.85,10.85-22.42,20.72-34.58,29.59l94.02,129.41c79.98-58.11,135.19-137.63,163.5-224.99,28.96-89.36,29.75-186.93.09-278.16Z"/>
  <path class="cls-13" d="m500,790c-77.46,0-150.29-30.17-205.06-84.94-32.92-32.92-56.93-72.36-70.87-115.4l-152.16,49.44c14.24,43.79,35.5,86.13,64.03,125.4,28.53,39.27,62.23,72.57,99.48,99.65,77.61,56.41,170.65,85.8,264.58,85.88,91.83.08,184.52-27.86,264.5-85.97l-94.02-129.41c-49.24,35.93-108.36,55.35-170.48,55.35Z"/>
  <path class="cls-9" d="m812.59,699.5c11.47,13.78,21.5,25.18,29.86,33.92,2.12,2.22,5.23,3.2,8.25,2.61s5.51-2.69,6.63-5.56l6.7-17.2c1.26-3.26.53-6.98-1.91-9.5-1.54-1.6-3.12-3.22-4.72-4.88l3.88,1.29c2.39.79,5,.55,7.2-.68,2.2-1.22,3.78-3.31,4.37-5.77l3.83-16.06c.72-3.02-.18-6.06-2.16-8.2,8.42-3.4,14.35-9.84,17.31-18.94,3.99-12.27,2.07-23.73-5.54-33.14-.5-.62-1.03-1.22-1.58-1.82.39-.06.79-.12,1.18-.2,12.11-2.3,20.46-9.54,24.17-20.94,3.16-9.73,2.6-18.95-1.57-27.05,4.36.91,8.83-1.54,10.32-5.86l5.76-16.68c.57-1.65.65-3.46.21-5.16l-5.36-20.99c-.94-3.66-4.06-6.35-7.83-6.72l-14.69-1.45c-2.71-.27-5.4.71-7.31,2.66-1.91,1.95-2.82,4.66-2.49,7.37.12.95.22,1.85.3,2.69-18.16-5.54-37.65-11.56-58.11-17.95-2.34-.73-4.87-.47-7.01.71-2.01,1.1-3.51,2.93-4.21,5.1-.05.15-.09.3-.13.45l-4.23,15.79c-1.25,4.65,1.39,9.45,5.98,10.9.1.03.21.07.32.1-9.35,4.27-14.22,11.86-16.69,19.46-3.25,10-3.24,22.38,8.09,33.79-15.85,2.59-23.11,12.44-26.31,22.31-2.46,7.58-3.05,16.54,1.75,25.4-2.2-.64-4.57-.43-6.61.62-2.16,1.11-3.8,3.04-4.5,5.37l-4.61,15.04c-1.07,3.49.09,7.13,2.67,9.4-1.18.09-2.32.17-3.42.24-3.69.23-6.85,2.69-7.99,6.19-.01.04-.02.07-.03.11l-6.22,19.99c-.94,3.02-.22,6.32,1.89,8.67,2.11,2.36,5.31,3.43,8.42,2.82,19-3.72,34.5-6.49,46.18-8.25Zm25.73-69.36s.06.02.09.03c9.28,3.29,14.08,5.99,16.52,7.77-3-.1-8.37-.9-17.53-3.88-10.59-3.44-15.3-6.36-17.33-8.03,2.35-.07,6.97.37,15.33,3.09.94.31,1.93.65,2.92,1.01Zm18.23-56.1s.06.02.09.03c9.28,3.29,14.08,5.99,16.52,7.77-3-.1-8.37-.9-17.53-3.88-10.59-3.44-15.3-6.36-17.33-8.03,2.35-.07,6.97.37,15.33,3.09.94.31,1.93.65,2.92,1.01Z"/>
  <g>
    <path class="cls-11" d="m910.2,558.25c-19.61-6.69-39.16-13.21-58.65-19.54-9.77-3.17-19.53-6.3-29.28-9.37l4.23-15.79c25.18,7.86,48.52,15.05,70.03,21.58.43-3.74.22-9.06-.62-15.98l14.69,1.45,5.36,20.99-5.76,16.68Z"/>
    <path class="cls-11" d="m901.4,591.31c-5.36,16.49-23.06,19.85-53.11,10.08-30.09-9.78-42.27-23.49-36.54-41.15s24.19-21.42,55.37-11.29c28.97,9.41,40.39,23.53,34.28,42.35Zm-41.85-26.06c-1.11-.41-2.19-.78-3.24-1.12-16.49-5.36-25.84-4.63-28.05,2.17-2.33,7.18,5.83,13.8,24.49,19.86,18.66,6.06,29.08,5.73,31.26-.99,2.18-6.72-5.97-13.36-24.47-19.92Z"/>
    <path class="cls-11" d="m883.17,647.41c-5.36,16.49-23.06,19.85-53.11,10.08-30.09-9.78-42.27-23.49-36.54-41.15,5.74-17.66,24.19-21.42,55.37-11.29,28.97,9.41,40.39,23.53,34.28,42.35Zm-41.85-26.06c-1.11-.41-2.19-.78-3.24-1.12-16.49-5.36-25.84-4.63-28.05,2.17-2.33,7.18,5.83,13.8,24.49,19.86,18.66,6.06,29.08,5.73,31.26-.99,2.18-6.72-5.97-13.36-24.47-19.92Z"/>
    <path class="cls-11" d="m864,691.29l-39.05-12.96c11.17,11.34,21.37,21.78,30.59,31.33l-6.7,17.2c-9.02-9.44-19.91-21.88-32.66-37.33-12.32,1.72-29.53,4.73-51.6,9.05l6.22-19.99c10.97-.68,25.05-2.38,42.22-5.11l-33.43-10.86,4.61-15.04c22.11,7.51,49.99,16.73,83.63,27.66l-3.83,16.06Z"/>
  </g>
  <g>
    <path class="cls-1" d="m736.61,139.95l-42.38-.43-34.14,24.13-12.66,39.33,13.45,39.37,34.36,24.59,42.38.43,34.14-24.13,12.66-39.33-13.45-39.37-34.36-24.59Zm36.96,64.31l-10.63,33.02-28.44,20.1-35.58-.36-29.21-20.91-11.44-33.47,10.63-33.02,28.44-20.1,35.58.36,29.21,20.91,11.44,33.47Z"/>
    <path class="cls-1" d="m730.86,159.09l-29.38-.3-23.71,16.76-8.78,27.27,9.31,27.23,23.76,17.01,29.38.3,23.71-16.76,8.78-27.27-9.3-27.23-23.76-17.01Zm22.22,44.58l-6.75,20.96-18.01,12.73-22.59-.23-18.61-13.33-7.29-21.33,6.75-20.96,18.01-12.73,22.59.23,18.62,13.33,7.29,21.33Z"/>
  </g>
  <g class="cls-15">
    <polygon class="cls-6" points="429.94 833.56 439.68 836.72 442.17 829.03 344.8 797.39 342.3 805.08 352.04 808.24 339.3 847.45 318.69 840.76 364.56 901.62 437.45 879.34 417.2 872.76 429.94 833.56"/>
    <rect class="cls-6" x="390.68" y="745.99" width="10.78" height="118.56" transform="translate(-492.18 933.11) rotate(-72)"/>
  </g>
  <g>
    <polygon class="cls-13" points="363.02 880 366.64 884.98 372.5 886.89 378.36 884.98 381.98 880 381.98 873.84 378.36 868.85 372.5 866.95 366.64 868.85 363.02 873.84 363.02 880"/>
    <path class="cls-13" d="m429.94,833.56l9.74,3.16,2.5-7.69-97.38-31.64-2.5,7.69,9.74,3.16-12.74,39.21-20.61-6.7,45.88,60.86,72.89-22.27-20.25-6.58,12.74-39.21Zm-22.99,35.88l-12.3-4,12.74-39.21,12.3,4-12.74,39.21Zm-34.85-11.32l12.74-39.21,12.3,4-12.74,39.21-12.3-4Zm-9.81-46.53l12.3,4-12.74,39.21-12.3-4,12.74-39.21Zm4.31,83.79l-33.31-44.2,86.24,28.02-52.93,16.17Z"/>
    <rect class="cls-13" x="390.68" y="745.99" width="10.78" height="118.56" transform="translate(-492.18 933.11) rotate(-72)"/>
  </g>
  <polygon class="cls-10" points="243.79 221.4 204.48 232.36 181.23 216.31 162.28 243.78 162.63 244.02 140.87 250.09 150.47 355.79 169.38 346.81 216.91 379.62 288.95 275.26 242.06 242.89 243.79 221.4"/>
  <g>
    <polygon class="cls-1" points="163.95 266.02 167.06 302.64 170.17 339.25 215.21 370.34 239.29 335.46 211.28 316.12 227.2 293.06 255.21 312.39 279.67 276.96 234.63 245.87 199.29 255.95 163.95 266.02"/>
    <polygon class="cls-1" points="203.26 239.63 182.93 225.6 171.56 242.08 178.15 246.63 148.02 255.03 152.74 306.94 156.25 345.66 165.74 341.16 162.59 304.41 159.01 262.61 199.37 251.14 235.52 240.86 236.37 230.4 203.26 239.63"/>
  </g>
  <path class="cls-4" d="m145.93,448.55c-6.31,0-11.66,15.56-13.46,37.01l-10.52-12.54-23.76-4.19-20.89,12.06-8.25,22.67,8.25,22.67,20.89,12.06,23.76-4.19,10.89-12.97c2.08,19.46,7.16,33.21,13.09,33.21,5.44,0,10.15-11.54,12.5-28.43l9.36,3.57,13.08-4.98,8.08-13.05v-16.13s-8.08-13.05-8.08-13.05l-13.08-4.98-8.89,3.39c-2.15-18.89-7.15-32.13-12.98-32.13Z"/>
  <polygon class="cls-7" points="146.64 495.32 146.64 511.45 154.72 524.5 167.8 529.48 180.87 524.5 188.96 511.45 188.96 495.32 180.87 482.27 167.8 477.29 154.72 482.27 146.64 495.32"/>
  <ellipse class="cls-12" cx="145.93" cy="501.45" rx="14.11" ry="52.9"/>
  <polygon class="cls-5" points="69.06 503.56 77.31 526.23 98.2 538.29 121.95 534.1 137.46 515.62 137.46 491.5 121.95 473.02 98.2 468.83 77.31 480.89 69.06 503.56"/>
  <rect class="cls-3" x="131.83" y="492.98" width="21.16" height="21.16" transform="translate(-361.15 645.97) rotate(-90)"/>
  <polygon class="cls-8" points="386.12 124.61 390.97 101.75 373.59 86.1 351.34 93.33 346.48 116.21 363.86 131.86 363.88 131.86 364.6 134.08 364.59 134.08 376.6 204.45 402.21 211.27 418.92 190.7 386.87 126.94 386.12 124.61"/>
  <g>
    <polygon class="cls-14" points="386.11 124.63 390.97 101.75 373.59 86.1 351.34 93.33 346.48 116.21 363.86 131.86 386.11 124.63"/>
    <polygon class="cls-14" points="372.63 181.2 376.6 204.45 402.21 211.27 418.92 190.7 399.27 151.61 372.63 181.2"/>
    <polygon class="cls-14" points="364.59 134.08 370.12 166.51 393.64 140.39 386.83 126.86 364.59 134.08"/>
    <polygon class="cls-14" points="371.13 172.38 395.89 144.88 394.76 142.64 370.62 169.44 371.13 172.38"/>
  </g>
</svg>