<?xml version="1.0" encoding="UTF-8"?>
<svg id="book" xmlns="http://www.w3.org/2000/svg" xmlns:xlink="http://www.w3.org/1999/xlink" viewBox="0 0 208 208">
  <defs>
    <style>
      .cls-1 {
        fill: none;
        opacity: .8;
      }

      .cls-2 {
        fill: url(#linear-gradient);
      }

      .cls-3 {
        fill: url(#linear-gradient-3);
      }

      .cls-4 {
        fill: url(#linear-gradient-4);
      }

      .cls-5 {
        fill: url(#linear-gradient-2);
      }

      .cls-6 {
        fill: url(#linear-gradient-6);
      }

      .cls-7 {
        fill: url(#linear-gradient-5);
      }
    </style>
    <linearGradient id="linear-gradient" x1="104" y1="17.25" x2="104" y2="196.25" gradientUnits="userSpaceOnUse">
      <stop offset="0" stop-color="#3bbce5"/>
      <stop offset="0" stop-color="#1491d2"/>
      <stop offset="1" stop-color="#024aa2"/>
    </linearGradient>
    <linearGradient id="linear-gradient-2" x1="61.5" y1="11.75" x2="61.5" y2="156.75" gradientUnits="userSpaceOnUse">
      <stop offset="0" stop-color="#3bbce5"/>
      <stop offset=".07" stop-color="#35b6e2"/>
      <stop offset=".39" stop-color="#23a1d9"/>
      <stop offset=".7" stop-color="#1795d3"/>
      <stop offset="1" stop-color="#1491d2"/>
    </linearGradient>
    <linearGradient id="linear-gradient-3" x1="146.5" x2="146.5" xlink:href="#linear-gradient-2"/>
    <linearGradient id="linear-gradient-4" x1="104" y1="26.75" x2="104" y2="156.75" gradientUnits="userSpaceOnUse">
      <stop offset="0" stop-color="#1491d2"/>
      <stop offset="1" stop-color="#024aa2"/>
    </linearGradient>
    <linearGradient id="linear-gradient-5" x1="96.4" y1="23.8" x2="26.6" y2="144.7" gradientUnits="userSpaceOnUse">
      <stop offset="0" stop-color="#024aa2" stop-opacity="0"/>
      <stop offset="1" stop-color="#024aa2"/>
    </linearGradient>
    <linearGradient id="linear-gradient-6" x1="187.89" y1="12.55" x2="105.11" y2="155.95" xlink:href="#linear-gradient-5"/>
  </defs>
  <polygon class="cls-2" points="196.5 17.98 196.5 150.05 107.43 166.75 100.57 166.75 11.5 150.05 11.5 17.98 4 17.25 4 162.25 94 171.48 94 196.25 104 186.25 114 196.25 114 171.48 204 162.25 204 17.25 196.5 17.98"/>
  <g>
    <polygon class="cls-5" points="21.5 141.75 101.5 156.75 101.5 26.75 21.5 11.75 21.5 141.75"/>
    <polygon class="cls-3" points="106.5 26.75 106.5 156.75 186.5 141.75 186.5 11.75 106.5 26.75"/>
  </g>
  <rect class="cls-4" x="101.5" y="26.75" width="5" height="130"/>
  <g class="cls-1">
    <polygon class="cls-7" points="21.5 141.75 101.5 156.75 101.5 26.75 21.5 11.75 21.5 141.75"/>
    <polygon class="cls-6" points="106.5 26.75 106.5 156.75 186.5 141.75 186.5 11.75 106.5 26.75"/>
  </g>
</svg>