<?xml version="1.0" encoding="UTF-8"?>
<svg id="collegex2" xmlns="http://www.w3.org/2000/svg" xmlns:xlink="http://www.w3.org/1999/xlink" viewBox="0 0 208 208">
  <defs>
    <style>
      .cls-1 {
        fill: url(#linear-gradient);
      }

      .cls-2 {
        fill: #1491d2;
      }

      .cls-3 {
        fill: url(#linear-gradient-2);
      }

      .cls-4 {
        fill: #fff;
        filter: url(#drop-shadow-1);
      }
    </style>
    <filter id="drop-shadow-1" filterUnits="userSpaceOnUse">
      <feOffset dx="1" dy="1"/>
      <feGaussianBlur result="blur" stdDeviation="2"/>
      <feFlood flood-color="#000" flood-opacity=".4"/>
      <feComposite in2="blur" operator="in"/>
      <feComposite in="SourceGraphic"/>
    </filter>
    <linearGradient id="linear-gradient" x1="135.56" y1="138.75" x2="99.43" y2="174.88" gradientUnits="userSpaceOnUse">
      <stop offset="0" stop-color="#f7c837"/>
      <stop offset="1" stop-color="#fcb063"/>
    </linearGradient>
    <linearGradient id="linear-gradient-2" x1="172.49" y1="122.99" x2="132.37" y2="163.1" xlink:href="#linear-gradient"/>
  </defs>
  <g>
    <polygon class="cls-2" points="37.33 66.67 37.33 122.67 104 150.67 170.67 122.67 170.67 66.67 104 93.33 37.33 66.67"/>
    <polygon class="cls-2" points="190.67 52 204 46.67 104 6.67 4 46.67 104 86.67 184 54.67 184 126.67 174 126.67 174 153.33 184 153.33 184 171.33 180.67 181.33 174 201.33 187.33 198.33 200.67 201.33 194 181.33 190.67 171.33 190.67 153.33 200.67 153.33 200.67 126.67 190.67 126.67 190.67 52"/>
  </g>
  <path class="cls-4" d="m180.96,170.5l-.76-4.66-1.79-10.91-.81-4.96-4.96.84-8.69,1.47c2.57-4.78,4.47-8.68,5.74-11.78,2.22-5.4,3.03-11.1,2.42-16.94v-.09s-.02-.09-.02-.09c-.12-.89-.26-1.75-.4-2.56-.83-4.69-2.42-8.54-4.74-11.44l-.02-.03-.02-.03c-3.03-3.69-6.99-5.87-11.76-6.46-1.1-.13-2.19-.19-3.27-.19-1.64,0-3.32.15-4.98.44-1.51.27-3.05.66-4.58,1.18-4.82,1.64-8.53,4.72-11.03,9.15-1.99,3.52-2.48,8.18-1.54,14.18l-11.19.65-4.34.25-.29,3.49-1.48-3.19-4.24,1.43-11.1,3.75-6.05,2.04,3.43,5.38,11.02,17.29c-1.43,6.6-2.98,13.36-4.64,20.13l-1.59,6.48,6.67-.3,10.87-.49,4.19-.19.54-4.16.26-2.03,1.06,1.98,1.91,3.58,3.89-1.13,10.98-3.19,6.55-1.9-.04-.07c12.21-2.17,22.37-4.16,30.2-5.91l4.61-1.03Zm-50.04-16.76c1.13-6.02,2.29-11.4,3.46-16.09l2.25-.35,10.88-1.7,2.09-.33c-.16.38-.34.76-.53,1.15-2.45,4.96-6.86,12.39-13.09,22.07l-1.09,1.69c-1.35-2.16-2.69-4.32-3.97-6.45Z"/>
  <g>
    <path class="cls-1" d="m108.82,135.14l7.56,16.24,1.48-17.97,11.69-.67c-1.67,6.11-3.29,13.47-4.87,22.1,3.9,6.53,8.09,13.17,12.59,19.92l-10.98,3.19-8.41-15.74-2.28,17.49-10.87.49c1.85-7.57,3.56-15,5.11-22.28l-12.12-19.02,11.1-3.75Z"/>
    <path class="cls-3" d="m134.88,132.51c-.45-1.71-.81-3.3-1.07-4.78-.91-5.18-.63-9.07.85-11.69,1.89-3.34,4.64-5.63,8.27-6.87,1.29-.44,2.58-.77,3.85-.99,2.28-.4,4.54-.47,6.76-.21,3.47.43,6.31,1.99,8.51,4.67,1.8,2.25,3.04,5.31,3.72,9.18.13.75.26,1.55.38,2.39.53,5.03-.16,9.87-2.07,14.52-1.91,4.64-5.43,11.43-10.57,20.35l18.98-3.21,1.79,10.91c-8.23,1.84-18.9,3.91-32,6.22l-3.09-11.66c6.37-9.89,10.82-17.41,13.37-22.57,2.33-4.73,3.13-9.12,2.42-13.17l-.19-1.09c-1.08-4.28-3.29-6.13-6.61-5.54l-.17.03c-2.88.6-3.86,3.48-2.94,8.66.17.98.4,2.03.69,3.14l-10.88,1.7Z"/>
  </g>
</svg>