<?xml version="1.0" encoding="UTF-8"?>
<svg id="pig" xmlns="http://www.w3.org/2000/svg" xmlns:xlink="http://www.w3.org/1999/xlink" viewBox="0 0 208 208">
  <defs>
    <style>
      .cls-1 {
        fill: url(#linear-gradient);
      }

      .cls-2 {
        fill: url(#linear-gradient-3);
      }

      .cls-3 {
        fill: url(#linear-gradient-2);
      }
    </style>
    <linearGradient id="linear-gradient" x1="65.25" y1="138.75" x2="101.25" y2="174.75" gradientUnits="userSpaceOnUse">
      <stop offset="0" stop-color="#f87d2b"/>
      <stop offset=".46" stop-color="#f77a29"/>
      <stop offset=".65" stop-color="#f67324"/>
      <stop offset=".79" stop-color="#f5671c"/>
      <stop offset=".91" stop-color="#f25511"/>
      <stop offset="1" stop-color="#f04305"/>
    </linearGradient>
    <linearGradient id="linear-gradient-2" x1="31.07" y1="29.03" x2="162.52" y2="160.48" gradientUnits="userSpaceOnUse">
      <stop offset="0" stop-color="#fcb063"/>
      <stop offset=".16" stop-color="#fa9e50"/>
      <stop offset=".4" stop-color="#f98c3b"/>
      <stop offset=".63" stop-color="#f8802f"/>
      <stop offset=".85" stop-color="#f87d2b"/>
    </linearGradient>
    <linearGradient id="linear-gradient-3" x1="120.14" y1="87.6" x2="121.95" y2="89.41" xlink:href="#linear-gradient-2"/>
  </defs>
  <polygon class="cls-1" points="100 141 63 141 70 176 100 176 100 141"/>
  <g>
    <path class="cls-3" d="m194.32,100.99c1.96-1.87,3.68-4.05,5.07-6.59,3.1-5.66,6.64-17.05.25-23.83-3.37-3.58-8.92-5.13-15.22-4.24-4.98.71-11.24,3.28-13.86,8.38-1.66,3.24-3.33,11.14,7.88,24.38-1.98.73-4.15,1.33-6.52,1.81-1.45.29-2.88.52-4.24.69-.13-.55-.28-1.1-.47-1.64l-10.84-30.41c-1.09-3.06-3.15-5.69-5.86-7.48l-29.55-19.56c-2.46-1.63-5.35-2.5-8.3-2.5h-37.3c-.7,0-1.4.05-2.08.15l-12.36-6.16-23.21-11.57,1.59,25.89.74,12.09-2.52,1.67c-2.71,1.8-4.77,4.42-5.86,7.48l-5.51,15.45H4v36h20.7l6.94,19.45c1.09,3.06,3.15,5.69,5.86,7.48l14.62,9.68,4.88,24.38h30v-12h24v12h30l14.82-40.24v.02c.19-.43.38-.87.54-1.32l10.23-28.69c5.74-.54,12.83-1.87,19.24-4.98,2.08,1.94,4.41,3.97,7.01,6.09l3.88,3.16,6.32-7.75-3.88-3.16c-1.75-1.43-3.36-2.81-4.84-4.14Zm-58.77-2.55c-6.06.1-9.29-5.43-13.47-9.13-3.78-2.91-7.89-5.36-12.23-7.32-3.99-1.57-8.11-2.73-12.33-3.43-2.08-.23-4.16-.38-6.26-.4-9.06.18-13.97-11.73-7.42-17.93,10.12-7.88,31.81.87,41.98,6.35,7.77,5.3,18.81,11.24,20.23,21.36.18,5.62-4.94,10.6-10.5,10.5Zm55.07-8.84c-.87,1.59-2,3.04-3.38,4.34-7.08-7.92-8.57-13.12-7.78-14.65.49-.96,2.79-2.54,6.37-3.04.66-.09,1.31-.14,1.93-.14,2.05,0,3.82.48,4.61,1.33,1.78,1.89.55,7.98-1.75,12.17Z"/>
    <path class="cls-2" d="m122.07,89.29c-.65-.58-1.32-1.11-2.04-1.57.68.52,1.36,1.05,2.04,1.57Z"/>
  </g>
</svg>