<?xml version="1.0" encoding="UTF-8"?>
<svg id="spinner" xmlns="http://www.w3.org/2000/svg" xmlns:xlink="http://www.w3.org/1999/xlink" viewBox="0 0 208 208">
  <defs>
    <style>
      .cls-1 {
        fill: #f2f2f2;
      }

      .cls-2 {
        fill: #00dae0;
      }

      .cls-3 {
        fill: #00aeff;
      }

      .cls-4 {
        fill: #ff9d00;
      }

      .cls-5, .cls-6 {
        fill: #fff;
      }

      .cls-7 {
        fill: #ffe700;
      }

      .cls-8 {
        fill: #fefc00;
      }

      .cls-9 {
        fill: red;
      }

      .cls-10 {
        fill: #f0f;
      }

      .cls-11 {
        fill: #8b53ff;
      }

      .cls-12 {
        fill: #ce20ff;
      }

      .cls-13 {
        fill: #4a54ff;
      }

      .cls-6 {
        filter: url(#drop-shadow-1);
      }
    </style>
    <filter id="drop-shadow-1" filterUnits="userSpaceOnUse">
      <feOffset dx="0" dy="0"/>
      <feGaussianBlur result="blur" stdDeviation="3"/>
      <feFlood flood-color="#000" flood-opacity=".3"/>
      <feComposite in2="blur" operator="in"/>
      <feComposite in="SourceGraphic"/>
    </filter>
  </defs>
  <circle class="cls-6" cx="104" cy="104" r="95"/>
  <path class="cls-1" d="m104,17c47.97,0,87,39.03,87,87s-39.03,87-87,87S17,151.97,17,104,56.03,17,104,17m0-5C53.19,12,12,53.19,12,104s41.19,92,92,92,92-41.19,92-92S154.81,12,104,12h0Z"/>
  <g>
    <circle class="cls-5" cx="104" cy="12.2" r="1.5"/>
    <path class="cls-1" d="m104,11c.66,0,1.2.54,1.2,1.2s-.54,1.2-1.2,1.2-1.2-.54-1.2-1.2.54-1.2,1.2-1.2m0-.6c-.99,0-1.8.81-1.8,1.8s.81,1.8,1.8,1.8,1.8-.81,1.8-1.8-.81-1.8-1.8-1.8h0Z"/>
  </g>
  <g>
    <circle class="cls-5" cx="158" cy="29.8" r="1.5"/>
    <path class="cls-1" d="m158,28.6c.66,0,1.2.54,1.2,1.2s-.54,1.2-1.2,1.2-1.2-.54-1.2-1.2.54-1.2,1.2-1.2m0-.6c-.99,0-1.8.81-1.8,1.8s.81,1.8,1.8,1.8,1.8-.81,1.8-1.8-.81-1.8-1.8-1.8h0Z"/>
  </g>
  <g>
    <circle class="cls-5" cx="191.4" cy="75.8" r="1.5"/>
    <path class="cls-1" d="m191.4,74.6c.66,0,1.2.54,1.2,1.2s-.54,1.2-1.2,1.2-1.2-.54-1.2-1.2.54-1.2,1.2-1.2m0-.6c-.99,0-1.8.81-1.8,1.8s.81,1.8,1.8,1.8,1.8-.81,1.8-1.8-.81-1.8-1.8-1.8h0Z"/>
  </g>
  <g>
    <circle class="cls-5" cx="191.2" cy="132.6" r="1.5"/>
    <path class="cls-1" d="m191.2,131.4c.66,0,1.2.54,1.2,1.2s-.54,1.2-1.2,1.2-1.2-.54-1.2-1.2.54-1.2,1.2-1.2m0-.6c-.99,0-1.8.81-1.8,1.8s.81,1.8,1.8,1.8,1.8-.81,1.8-1.8-.81-1.8-1.8-1.8h0Z"/>
  </g>
  <g>
    <circle class="cls-5" cx="158" cy="178.4" r="1.5"/>
    <path class="cls-1" d="m158,177.2c.66,0,1.2.54,1.2,1.2s-.54,1.2-1.2,1.2-1.2-.54-1.2-1.2.54-1.2,1.2-1.2m0-.6c-.99,0-1.8.81-1.8,1.8s.81,1.8,1.8,1.8,1.8-.81,1.8-1.8-.81-1.8-1.8-1.8h0Z"/>
  </g>
  <g>
    <circle class="cls-5" cx="104" cy="195.8" r="1.5"/>
    <path class="cls-1" d="m104,194.6c.66,0,1.2.54,1.2,1.2s-.54,1.2-1.2,1.2-1.2-.54-1.2-1.2.54-1.2,1.2-1.2m0-.6c-.99,0-1.8.81-1.8,1.8s.81,1.8,1.8,1.8,1.8-.81,1.8-1.8-.81-1.8-1.8-1.8h0Z"/>
  </g>
  <g>
    <circle class="cls-5" cx="50.2" cy="178.2" r="1.5"/>
    <path class="cls-1" d="m50.2,177c.66,0,1.2.54,1.2,1.2s-.54,1.2-1.2,1.2-1.2-.54-1.2-1.2.54-1.2,1.2-1.2m0-.6c-.99,0-1.8.81-1.8,1.8s.81,1.8,1.8,1.8,1.8-.81,1.8-1.8-.81-1.8-1.8-1.8h0Z"/>
  </g>
  <g>
    <circle class="cls-5" cx="16.8" cy="132.6" r="1.5"/>
    <path class="cls-1" d="m16.8,131.4c.66,0,1.2.54,1.2,1.2s-.54,1.2-1.2,1.2-1.2-.54-1.2-1.2.54-1.2,1.2-1.2m0-.6c-.99,0-1.8.81-1.8,1.8s.81,1.8,1.8,1.8,1.8-.81,1.8-1.8-.81-1.8-1.8-1.8h0Z"/>
  </g>
  <g>
    <circle class="cls-5" cx="16.6" cy="75.6" r="1.5"/>
    <path class="cls-1" d="m16.6,74.4c.66,0,1.2.54,1.2,1.2s-.54,1.2-1.2,1.2-1.2-.54-1.2-1.2.54-1.2,1.2-1.2m0-.6c-.99,0-1.8.81-1.8,1.8s.81,1.8,1.8,1.8,1.8-.81,1.8-1.8-.81-1.8-1.8-1.8h0Z"/>
  </g>
  <g>
    <circle class="cls-5" cx="50" cy="29.8" r="1.5"/>
    <path class="cls-1" d="m50,28.6c.66,0,1.2.54,1.2,1.2s-.54,1.2-1.2,1.2-1.2-.54-1.2-1.2.54-1.2,1.2-1.2m0-.6c-.99,0-1.8.81-1.8,1.8s.81,1.8,1.8,1.8,1.8-.81,1.8-1.8-.81-1.8-1.8-1.8h0Z"/>
  </g>
  <path class="cls-2" d="m104,46V14c-19.77,0-38.05,6.38-52.9,17.18l18.81,25.89c9.85-7.19,21.67-11.07,34.1-11.07Z"/>
  <path class="cls-3" d="m62.99,62.99c2.17-2.17,4.48-4.14,6.92-5.92l-18.81-25.89c-15.19,11.05-26.79,26.75-32.71,45l30.43,9.89c2.79-8.61,7.59-16.5,14.17-23.08Z"/>
  <path class="cls-13" d="m46,104c0-6.18.96-12.21,2.81-17.93l-30.43-9.89c-2.84,8.76-4.38,18.11-4.38,27.82s1.54,19.06,4.38,27.82l30.43-9.89c-1.85-5.72-2.81-11.75-2.81-17.93Z"/>
  <path class="cls-11" d="m62.99,145.01c-6.58-6.58-11.39-14.47-14.17-23.08l-30.43,9.89c5.93,18.25,17.52,33.94,32.71,45l18.81-25.89c-2.43-1.77-4.75-3.75-6.92-5.92Z"/>
  <path class="cls-12" d="m51.1,176.82c14.85,10.81,33.13,17.18,52.9,17.18v-32c-12.42,0-24.25-3.88-34.1-11.07l-18.81,25.89Z"/>
  <path class="cls-10" d="m104,162v32c19.77,0,38.05-6.38,52.9-17.18l-18.81-25.89c-9.85,7.19-21.67,11.07-34.1,11.07Z"/>
  <path class="cls-9" d="m159.19,121.93c-2.79,8.61-7.59,16.5-14.17,23.08-2.17,2.17-4.48,4.14-6.92,5.92l18.81,25.89c15.19-11.05,26.79-26.75,32.71-45l-30.43-9.89Z"/>
  <path class="cls-4" d="m189.62,76.18l-30.43,9.89c1.85,5.72,2.81,11.75,2.81,17.93s-.96,12.21-2.81,17.93l30.43,9.89c2.84-8.76,4.38-18.11,4.38-27.82s-1.54-19.06-4.38-27.82Z"/>
  <path class="cls-7" d="m145.01,62.99c6.58,6.58,11.39,14.47,14.17,23.08l30.43-9.89c-5.93-18.25-17.52-33.94-32.71-45l-18.81,25.89c2.43,1.77,4.75,3.75,6.92,5.92Z"/>
  <path class="cls-8" d="m156.9,31.18c-14.85-10.81-33.13-17.18-52.9-17.18v32c12.42,0,24.25,3.88,34.1,11.07l18.81-25.89Z"/>
  <path class="cls-9" d="m136.33,59.5l-32.33,44.5v-55c12.08,0,23.26,3.9,32.33,10.5Z"/>
  <path d="m156.32,87l-52.32,17,32.33-44.5c9.28,6.75,16.37,16.35,19.99,27.5Z"/>
  <path class="cls-9" d="m159,104c0,5.93-.94,11.65-2.68,17l-52.32-17,52.32-17c1.74,5.35,2.68,11.07,2.68,17Z"/>
  <path d="m156.32,121c-3.62,11.15-10.71,20.74-19.99,27.5l-32.33-44.5,52.32,17Z"/>
  <path class="cls-9" d="m136.33,148.5c-9.07,6.61-20.25,10.5-32.33,10.5v-55l32.33,44.5Z"/>
  <path d="m104,104v55c-12.08,0-23.26-3.9-32.33-10.5l32.33-44.5Z"/>
  <path class="cls-9" d="m104,104l-32.33,44.5c-9.28-6.75-16.37-16.35-19.99-27.5l52.32-17Z"/>
  <path d="m104,104l-52.32,17c-1.74-5.35-2.68-11.07-2.68-17s.94-11.65,2.68-17l52.32,17Z"/>
  <path class="cls-9" d="m104,104l-52.32-17c3.62-11.15,10.71-20.74,19.99-27.5l32.33,44.5Z"/>
  <path d="m104,49v55l-32.33-44.5c9.07-6.61,20.25-10.5,32.33-10.5Z"/>
  <circle class="cls-5" cx="104" cy="104" r="22"/>
  <g>
    <circle class="cls-5" cx="104" cy="104" r="12"/>
    <path class="cls-1" d="m104,117c-7.17,0-13-5.83-13-13s5.83-13,13-13,13,5.83,13,13-5.83,13-13,13Zm0-24c-6.07,0-11,4.93-11,11s4.93,11,11,11,11-4.93,11-11-4.93-11-11-11Z"/>
  </g>
  <path class="cls-5" d="m104,162c-15.49,0-30.06-6.03-41.01-16.99-10.95-10.95-16.99-25.52-16.99-41.01s6.03-30.06,16.99-41.01c10.95-10.95,25.52-16.99,41.01-16.99s30.06,6.03,41.01,16.99c10.95,10.95,16.99,25.52,16.99,41.01s-6.03,30.06-16.99,41.01c-10.95,10.95-25.52,16.99-41.01,16.99Zm0-104c-12.29,0-23.84,4.78-32.53,13.47-8.69,8.69-13.47,20.24-13.47,32.53s4.78,23.84,13.47,32.53c8.69,8.69,20.24,13.47,32.53,13.47s23.84-4.78,32.53-13.47c8.69-8.69,13.47-20.24,13.47-32.53s-4.78-23.84-13.47-32.53c-8.69-8.69-20.24-13.47-32.53-13.47Z"/>
  <rect class="cls-5" x="101" y="49" width="6" height="40"/>
  <rect class="cls-5" x="80.43" y="55.68" width="6" height="40" transform="translate(-28.55 63.49) rotate(-36)"/>
  <rect class="cls-5" x="67.71" y="73.18" width="6" height="40" transform="translate(-39.76 131.64) rotate(-72)"/>
  <rect class="cls-5" x="50.71" y="111.82" width="40" height="6" transform="translate(-32.02 27.47) rotate(-18)"/>
  <rect class="cls-5" x="63.43" y="129.32" width="40" height="6" transform="translate(-72.66 122.04) rotate(-54)"/>
  <rect class="cls-5" x="101" y="119" width="6" height="40" transform="translate(208 278) rotate(-180)"/>
  <rect class="cls-5" x="121.57" y="112.32" width="6" height="40" transform="translate(-53.98 98.49) rotate(-36)"/>
  <rect class="cls-5" x="134.29" y="94.82" width="6" height="40" transform="translate(-14.33 209.9) rotate(-72)"/>
  <rect class="cls-5" x="117.29" y="90.18" width="40" height="6" transform="translate(-22.08 46.98) rotate(-18)"/>
  <rect class="cls-5" x="104.57" y="72.68" width="40" height="6" transform="translate(-9.88 131.98) rotate(-54)"/>
</svg>