<?xml version="1.0" encoding="UTF-8"?>
<svg id="taxes" xmlns="http://www.w3.org/2000/svg" viewBox="0 0 200.12 181.56">
  <defs>
    <style>
      .cls-1 {
        fill: #e00006;
      }
    </style>
  </defs>
  <polygon class="cls-1" points="113.16 37.59 105.18 31.79 95.31 31.79 87.33 37.59 84.28 46.98 87.33 56.36 95.31 62.16 105.18 62.16 113.16 56.36 116.21 46.98 113.16 37.59"/>
  <path class="cls-1" d="m34.22,141.45h-16.4s0,12.95,0,12.95h163.99s0-12.95,0-12.95h-16.4s0-66.03,0-66.03h34.71S100.12,5.42,100.12,5.42L.12,75.42h34.1s0,66.03,0,66.03Zm17.26-66.03h20.71s0,66.03,0,66.03h-20.71s0-66.03,0-66.03Zm58.69,0v66.03s-20.71,0-20.71,0v-66.03s20.71,0,20.71,0Zm37.98,66.03h-20.71s0-66.03,0-66.03h20.71s0,66.03,0,66.03ZM100.12,15.96l72.62,50.83H27.5S100.12,15.96,100.12,15.96Z"/>
  <rect class="cls-1" x="4.87" y="159.14" width="189.88" height="17.26"/>
</svg>